# xmcd CD database file
#
# Track frame offsets:
#	150
#	23723
#	57952
#	81254
#	123472
#	157812
#	190068
#
# Disc length: 2816 seconds
#
# Revision: 0
# Processed by: cddbd v1.5.2PL0 Copyright (c) Steve Scherf et al.
# Submitted via: CDex 1.79
#
DISCID=4e0afe07
DTITLE=Dirty Past - Live at Roadhouse 2003
DYEAR=2003
DGENRE=Blues
TTITLE0=Juniors Wailing
TTITLE1=First time I met with the blues
TTITLE2=Hoochie Coochie Man
TTITLE3=Freeze to me
TTITLE4=Turn the page
TTITLE5=House blues
TTITLE6=Candle
EXTD=YEAR: 2003
EXTT0=
EXTT1=
EXTT2=
EXTT3=
EXTT4=
EXTT5=
EXTT6=
PLAYORDER=
